<svg xmlns="http://www.w3.org/2000/svg" width="336.781" height="133.688" viewBox="0 0 336.781 133.688">
  <defs>
    <style>
      .cls-1 {
        fill: #fff;
        fill-rule: evenodd;
      }
    </style>
  </defs>
  <path id="DM" class="cls-1" d="M518.338,364.528H447.351l-27.363,133.7h70.987c56.185,0,80.606-28.331,88.489-66.849C587.412,392.541,574.524,364.528,518.338,364.528Zm-18.245,89.928H481.47l9.48-46.317h18.622c11.3,0,21.179,4.616,17.368,23.238C523.194,449.681,511.393,454.456,500.093,454.456Zm66.01,43.77h49.818l9.219-45.043h3.979l-0.465,45.043h38.2l17.973-45.043h3.979l-9.219,45.043h49.819l27.363-133.7H691.193L663.834,428.99h-3.819l-0.973-64.462H593.466Z" transform="translate(-420 -364.531)"/>
</svg>
